<?xml version="1.0" encoding="UTF-8" standalone="no"?>
<!-- Created with Inkscape (http://www.inkscape.org/) -->

<svg
   xmlns:dc="http://purl.org/dc/elements/1.1/"
   xmlns:cc="http://creativecommons.org/ns#"
   xmlns:rdf="http://www.w3.org/1999/02/22-rdf-syntax-ns#"
   xmlns:svg="http://www.w3.org/2000/svg"
   xmlns="http://www.w3.org/2000/svg"
   xmlns:sodipodi="http://sodipodi.sourceforge.net/DTD/sodipodi-0.dtd"
   xmlns:inkscape="http://www.inkscape.org/namespaces/inkscape"
   width="64px"
   height="64px"
   id="svg2985"
   version="1.1"
   inkscape:version="0.48.3.1 r9886"
   sodipodi:docname="logo_source.svg"
   inkscape:export-filename="/home/sun/sources/myfoss/fakeroot-ng/git/logo_source.png"
   inkscape:export-xdpi="45"
   inkscape:export-ydpi="45">
  <title
     id="title4373">Fakeroot-NG Logo</title>
  <defs
     id="defs2987">
    <filter
       inkscape:collect="always"
       id="filter3777">
      <feGaussianBlur
         inkscape:collect="always"
         stdDeviation="0.5856161"
         id="feGaussianBlur3779" />
    </filter>
  </defs>
  <sodipodi:namedview
     id="base"
     pagecolor="#ffffff"
     bordercolor="#666666"
     borderopacity="1.0"
     inkscape:pageopacity="0.0"
     inkscape:pageshadow="2"
     inkscape:zoom="5.5"
     inkscape:cx="-32.181818"
     inkscape:cy="38.326705"
     inkscape:current-layer="layer1"
     showgrid="true"
     inkscape:document-units="px"
     inkscape:grid-bbox="true"
     inkscape:window-width="1920"
     inkscape:window-height="1025"
     inkscape:window-x="-3"
     inkscape:window-y="-3"
     inkscape:window-maximized="1" />
  <metadata
     id="metadata2990">
    <rdf:RDF>
      <cc:Work
         rdf:about="">
        <dc:format>image/svg+xml</dc:format>
        <dc:type
           rdf:resource="http://purl.org/dc/dcmitype/StillImage" />
        <dc:title>Fakeroot-NG Logo</dc:title>
        <cc:license
           rdf:resource="http://creativecommons.org/licenses/by-sa/3.0/" />
        <dc:date>April 16 2014</dc:date>
        <dc:creator>
          <cc:Agent>
            <dc:title>Shachar Shemesh</dc:title>
          </cc:Agent>
        </dc:creator>
        <dc:rights>
          <cc:Agent>
            <dc:title>(C)2014 Shachar Shemesh</dc:title>
          </cc:Agent>
        </dc:rights>
      </cc:Work>
      <cc:License
         rdf:about="http://creativecommons.org/licenses/by-sa/3.0/">
        <cc:permits
           rdf:resource="http://creativecommons.org/ns#Reproduction" />
        <cc:permits
           rdf:resource="http://creativecommons.org/ns#Distribution" />
        <cc:requires
           rdf:resource="http://creativecommons.org/ns#Notice" />
        <cc:requires
           rdf:resource="http://creativecommons.org/ns#Attribution" />
        <cc:permits
           rdf:resource="http://creativecommons.org/ns#DerivativeWorks" />
        <cc:requires
           rdf:resource="http://creativecommons.org/ns#ShareAlike" />
      </cc:License>
    </rdf:RDF>
  </metadata>
  <g
     id="layer1"
     inkscape:label="Layer 1"
     inkscape:groupmode="layer">
    <text
       xml:space="preserve"
       style="font-size:64px;font-style:normal;font-variant:normal;font-weight:normal;font-stretch:normal;line-height:125%;letter-spacing:0px;word-spacing:0px;fill:#000000;fill-opacity:1;stroke:none;font-family:Courier New;-inkscape-font-specification:Courier New"
       x="11.454545"
       y="60"
       id="text2997"
       sodipodi:linespacing="125%"><tspan
         sodipodi:role="line"
         id="tspan2999"
         x="11.454545"
         y="60" /></text>
    <g
       style="font-size:72px;font-style:normal;font-variant:normal;font-weight:bold;font-stretch:normal;line-height:125%;letter-spacing:0px;word-spacing:0px;opacity:0.625;fill:#202020;fill-opacity:1;stroke:#ffffff;stroke-opacity:1;filter:url(#filter3777);font-family:Courier New;-inkscape-font-specification:Courier New Bold"
       id="user">
      <path
         d="m 46.860085,10.044922 c 1.664035,0.21098 3.29294,0.67973 4.886718,1.40625 0.37497,-0.210896 0.726532,-0.363239 1.054688,-0.457031 0.351531,-0.117145 0.691374,-0.175739 1.019531,-0.175782 1.078092,4.3e-5 1.945278,0.375043 2.601563,1.125 0.679652,0.726604 1.019495,1.957071 1.019531,3.691407 l 0,2.320312 c -3.6e-5,1.734409 -0.339879,2.976595 -1.019531,3.726563 -0.656285,0.726593 -1.511752,1.089874 -2.566407,1.089843 -0.960968,3.1e-5 -1.78128,-0.316375 -2.460937,-0.949218 -0.656279,-0.632781 -1.042998,-1.558561 -1.160156,-2.777344 -1.687527,-1.335902 -3.7969,-2.00387 -6.328125,-2.003906 -2.648458,3.6e-5 -4.593768,0.480504 -5.835938,1.441406 -1.218765,0.937534 -1.82814,1.980501 -1.828125,3.128906 -1.5e-5,0.890656 0.374985,1.68753 1.125,2.390625 0.749984,0.703154 2.320294,1.300809 4.710938,1.792969 l 4.78125,1.019531 c 4.03122,0.820338 6.925749,2.050806 8.683593,3.691406 2.296839,2.085959 3.445275,4.839862 3.445313,8.261719 -3.8e-5,3.000012 -1.054724,5.671884 -3.164063,8.015625 -2.085969,2.320317 -5.074248,3.855472 -8.964843,4.605469 l 0,6.117187 c -2.6e-5,1.734369 -0.339869,2.964837 -1.019532,3.691407 -0.656273,0.749991 -1.52346,1.124991 -2.601562,1.125 -1.054708,-9e-6 -1.921895,-0.375009 -2.601563,-1.125 -0.656268,-0.72657 -0.984393,-1.957038 -0.984375,-3.691407 l 0,-6.117187 c -1.875016,-0.398435 -3.750014,-1.019528 -5.625,-1.863281 -1.007824,0.843753 -1.945323,1.265627 -2.8125,1.265625 -1.148446,2e-6 -2.062507,-0.363279 -2.742187,-1.089844 -0.656256,-0.726558 -0.984381,-1.957026 -0.984375,-3.691406 l 0,-4.535157 c -6e-6,-1.734361 0.328119,-2.964829 0.984375,-3.691406 0.67968,-0.749984 1.558585,-1.124983 2.636719,-1.125 0.867177,1.7e-5 1.593738,0.234392 2.179687,0.703125 0.585925,0.468766 1.0078,1.195327 1.265625,2.179688 0.257799,0.96095 0.62108,1.687512 1.089844,2.179687 0.70311,0.750011 1.769515,1.382823 3.199219,1.898438 1.453106,0.492196 2.941386,0.73829 4.464843,0.738281 2.671851,9e-6 4.898411,-0.691397 6.679688,-2.074219 1.195283,-0.91405 1.792938,-2.097643 1.792969,-3.550781 -3.1e-5,-1.195297 -0.398468,-2.179671 -1.195313,-2.953125 -0.796903,-0.749982 -2.472683,-1.382794 -5.027344,-1.898438 l -5.414062,-1.089843 c -3.820327,-0.749979 -6.621106,-2.121071 -8.402344,-4.113282 -1.781258,-1.99216 -2.671882,-4.382783 -2.671875,-7.171875 -7e-6,-2.76559 0.960929,-5.226525 2.882813,-7.382812 1.921862,-2.156209 4.488266,-3.515582 7.699218,-4.078125 l 0,-1.9687501 c -1.8e-5,-1.7108906 0.328107,-2.9296393 0.984375,-3.65625 0.679668,-0.7499504 1.558573,-1.12495 2.636719,-1.125 1.054665,5e-5 1.910133,0.3750496 2.566406,1.125 0.679663,0.7266107 1.019506,1.9453594 1.019532,3.65625 l 0,1.9687501"
         style=""
         id="path4379" />
    </g>
    <g
       style="font-size:72px;font-style:normal;font-variant:normal;font-weight:bold;font-stretch:normal;line-height:125%;letter-spacing:0px;word-spacing:0px;fill:#000000;fill-opacity:1;stroke:#ffffff;stroke-opacity:1;font-family:Courier New;-inkscape-font-specification:Courier New Bold"
       id="root">
      <path
         d="m 31.416193,20.873047 1.6875,0 c 1.734339,3.2e-5 2.964806,0.339876 3.691406,1.019531 0.749961,0.656281 1.124961,1.523468 1.125,2.601563 -3.9e-5,1.054715 -0.36332,1.921902 -1.089844,2.601562 -0.726599,0.656276 -1.957067,0.9844 -3.691406,0.984375 l -2.25,0 -0.527344,7.875 1.265625,0 c 1.734341,1.7e-5 2.964808,0.339861 3.691406,1.019531 0.749963,0.656266 1.124963,1.523453 1.125,2.601563 -3.7e-5,1.0547 -0.363318,1.921887 -1.089843,2.601562 -0.726598,0.656261 -1.957066,0.984386 -3.691407,0.984375 l -1.828125,0 -0.84375,12.375 c -0.02347,0.187498 -0.199248,1.019528 -0.527343,2.496094 -0.234405,0.562495 -0.656279,1.042963 -1.265625,1.441406 -0.609403,0.398431 -1.253933,0.59765 -1.933594,0.597657 -0.960963,-7e-6 -1.792993,-0.363288 -2.496094,-1.089844 -0.67971,-0.70313 -1.019554,-1.593754 -1.019531,-2.671875 -2.3e-5,-0.187503 0.02341,-0.632815 0.07031,-1.335938 l 0.84375,-11.8125 -5.378906,0 -0.84375,12.339844 c -0.09377,1.242184 -0.187517,1.980465 -0.28125,2.214844 -0.257829,0.70312 -0.703141,1.265619 -1.335937,1.6875 -0.609391,0.445306 -1.289077,0.667962 -2.039063,0.667969 -1.031263,-7e-6 -1.898449,-0.351569 -2.601562,-1.054688 -0.6796983,-0.70313 -1.0195417,-1.605473 -1.0195317,-2.707031 -10e-6,-0.257815 0.023428,-0.691409 0.070312,-1.300781 l 0.8085942,-11.847657 -1.757813,0 C 6.5489977,43.16212 5.3068114,42.833995 4.5568175,42.177734 3.8302504,41.498059 3.4669695,40.619153 3.4669738,39.541016 3.4669695,38.486343 3.8302504,37.630875 4.5568175,36.974609 5.3068114,36.294939 6.5489977,35.955095 8.28338,35.955078 l 2.285156,0 0.527344,-7.875 -1.3007812,0 c -1.7343839,2.5e-5 -2.9765702,-0.328099 -3.7265625,-0.984375 -0.7265687,-0.67966 -1.0898496,-1.558566 -1.0898438,-2.636719 -5.8e-6,-1.054657 0.3632751,-1.910125 1.0898438,-2.566406 0.7499923,-0.679655 1.9804599,-1.019499 3.6914062,-1.019531 l 1.8632815,0 0.84375,-12.3750001 c 0.09374,-1.218704 0.199205,-1.980422 0.316406,-2.2851563 0.257799,-0.6796397 0.691392,-1.2304204 1.300781,-1.6523437 0.632797,-0.4218258 1.324203,-0.6327631 2.074219,-0.6328125 0.984357,4.94e-5 1.828106,0.3516115 2.53125,1.0546875 0.703105,0.7031726 1.054667,1.6406717 1.054688,2.8125 -2.1e-5,0.2812952 -0.02346,0.6914511 -0.07031,1.2304687 l -0.808594,11.8476564 5.34375,0 0.84375,-12.3750001 c 0.09372,-1.6874535 0.468724,-2.8710461 1.125,-3.5507813 0.67966,-0.6796384 1.535128,-1.0194818 2.566407,-1.0195312 1.007781,4.94e-5 1.863249,0.3633303 2.566406,1.0898437 0.703092,0.7031726 1.054654,1.5703593 1.054687,2.6015625 -3.3e-5,0.2344205 -0.01175,0.433639 -0.03516,0.5976563 L 32.224786,9.0253906 31.416193,20.873047 m -7.734375,7.207031 -5.34375,0 -0.527344,7.875 5.34375,0 0.527344,-7.875"
         style=""
         id="path4376" />
    </g>
  </g>
</svg>
